<svg id="图层_1" data-name="图层 1" xmlns="http://www.w3.org/2000/svg" viewBox="0 0 504.8 504.8"><defs><style>.cls-1,.cls-2{fill:#fff;}.cls-1{isolation:isolate;opacity:0.5;}.cls-3{fill:#f4852b;}</style></defs><g id="图层_3" data-name="图层 3"><circle class="cls-1" cx="252.4" cy="252.4" r="252.4"/></g><g id="图层_2" data-name="图层 2"><circle class="cls-2" cx="252.4" cy="252.4" r="205.5"/><ellipse class="cls-3" cx="252.4" cy="262.4" rx="33.4" ry="32.1"/><path class="cls-3" d="M224.9,165.7l-19,20.1H172.5c-11.4,0-20.9,9.1-20.9,20.1V326.3c0,10.9,9.5,20.1,20.9,20.1h167c11.4,0,20.9-9.1,20.9-20.1V205.8c0-10.9-9.5-20.1-20.9-20.1h-33l-19-20.1H224.9ZM256,316c-28.8,0-52.4-22.6-52.4-50.4s23.6-50,52.4-50,52.4,22.6,52.4,50.4S284.8,316,256,316Z" transform="translate(-3.6 -3.6)"/></g></svg>