<svg xmlns="http://www.w3.org/2000/svg" viewBox="0 0 504.81 504.81"><defs><style>.cls-1,.cls-2{fill:#2a6049;}.cls-1{opacity:0.5;}.cls-3{fill:#fff;}</style></defs><g id="图层_3" data-name="图层 3"><circle class="cls-1" cx="252.41" cy="252.41" r="252.41"/></g><g id="图层_2" data-name="图层 2"><circle class="cls-2" cx="252.41" cy="252.41" r="205.5"/></g><g id="Layer_1" data-name="Layer 1"><ellipse class="cls-3" cx="252.41" cy="262.44" rx="33.38" ry="32.1"/><path class="cls-3" d="M224.9,165.69l-19,20.07H172.52c-11.37,0-20.87,9.13-20.87,20.07V326.24c0,10.94,9.5,20.07,20.87,20.07h167c11.37,0,20.87-9.13,20.87-20.07V205.83c0-10.94-9.5-20.07-20.87-20.07h-33l-18.95-20.07ZM256,316c-28.82,0-52.38-22.62-52.38-50.37s23.56-50,52.38-50,52.38,22.61,52.38,50.36S284.82,316,256,316Z" transform="translate(-3.59 -3.59)"/></g></svg>