<svg id="图层_1" data-name="图层 1" xmlns="http://www.w3.org/2000/svg" viewBox="0 0 383.58 128.47"><defs><style>.cls-1{fill:#d56d1d;}.cls-2{font-size:72px;fill:#df7018;font-family:HiraMaruPro-W4-83pv-RKSJ-H, Hiragino Maru Gothic Pro;letter-spacing:-0.06em;}.cls-3{letter-spacing:-0.05em;}</style></defs><path class="cls-1" d="M178.14,163.08a18.87,18.87,0,0,1,0,2c-.11,1.16-.27,2.31-.44,3.46-.2,1.35-.4,2.7-.65,4q-.56,2.88-1.18,5.74a98.16,98.16,0,0,1-2.6,9.69,20.67,20.67,0,0,1-5.24,8.52,23.39,23.39,0,0,1-7.51,4.82,30.45,30.45,0,0,1-5.89,1.76,11.85,11.85,0,0,1-3.26.13,9.1,9.1,0,0,1-5.08-2.06A11.56,11.56,0,0,1,142,194a14.73,14.73,0,0,1,.28-5.65c.71-3.18,1.93-6.21,2.95-9.3a35.58,35.58,0,0,0,1.44-5.84,22.86,22.86,0,0,0,.1-5.23,13.62,13.62,0,0,0-1.31-5,10.47,10.47,0,0,0-3.42-3.85c-1.63-1.13-3.31-2.21-4.88-3.42a21.54,21.54,0,0,1-7.47-9.8,16.49,16.49,0,0,1-.9-6.82,17.82,17.82,0,0,1,1.64-6.21,20.69,20.69,0,0,1,4.45-6.25,21.14,21.14,0,0,1,8.43-5.06,19.76,19.76,0,0,1,4.11-.78,17,17,0,0,1,7.61,1.26c3.32,1.28,6.68,2.48,10,3.83a33.16,33.16,0,0,1,4.61,2.42,17.52,17.52,0,0,1,5.53,5.41,28.83,28.83,0,0,1,3.36,8.24c.17.61-.23,1-.67,1.39a1.18,1.18,0,0,1-1.39.13,16.26,16.26,0,0,1-1.42-1.05,38.19,38.19,0,0,0-5-3.15,22.46,22.46,0,0,0-5.16-2,19.27,19.27,0,0,0-6.72-.58,13.68,13.68,0,0,0-6.84,2.4,6,6,0,0,0-2.61,4.28,9.43,9.43,0,0,0,.93,4.88,19.58,19.58,0,0,0,4,5.81,9.5,9.5,0,0,1,2.46,4.8,16.72,16.72,0,0,1,.09,5.33,38.42,38.42,0,0,1-1.94,8c-1.17,3.31-2.46,6.58-3.67,9.89a8.15,8.15,0,0,0-.39,3.47,5.21,5.21,0,0,0,.72,2.38,4.47,4.47,0,0,0,3.43,2,15.92,15.92,0,0,0,8.3-1.47,15.23,15.23,0,0,0,3.55-2,11.49,11.49,0,0,0,2.59-3,39.11,39.11,0,0,0,3.44-7.64c.9-2.48,1.74-5,2.62-7.47a17.23,17.23,0,0,1,2-4.06A15.36,15.36,0,0,1,178,163Z" transform="translate(-113.43 -99.14)"/><path class="cls-1" d="M125.35,99.25a10.8,10.8,0,0,1,6.23,1.7,13,13,0,0,1,3.33,3.21,14.09,14.09,0,0,1,2.62,5.49,10.54,10.54,0,0,1-2.14,9.33,14.65,14.65,0,0,1-6.3,4.38,10.18,10.18,0,0,1-3.32.72,4.38,4.38,0,0,1-2-.46,18.24,18.24,0,0,1-4.56-3.09,20.57,20.57,0,0,1-4.22-5,9.83,9.83,0,0,1-1.59-5.46,11.91,11.91,0,0,1,1-4,12.14,12.14,0,0,1,2.86-4.23,8.18,8.18,0,0,1,4.29-2.21c1.23-.22,2.48-.35,3.73-.52Z" transform="translate(-113.43 -99.14)"/><path class="cls-1" d="M155.51,108.14a7.75,7.75,0,0,1-2.21,5.43,8.5,8.5,0,0,1-3.27,2.3,5.66,5.66,0,0,1-4.28-.09,6.16,6.16,0,0,1-4.06-4.77,7.52,7.52,0,0,1,1.09-5.46,31.46,31.46,0,0,1,2-2.68,3.41,3.41,0,0,1,2.32-1.18,8,8,0,0,1,4.57.56A6.07,6.07,0,0,1,155.51,108.14Z" transform="translate(-113.43 -99.14)"/><path class="cls-1" d="M164.58,105.15a4.77,4.77,0,0,1,3.36,1.32,6.65,6.65,0,0,1,2.37,5.33A7,7,0,0,1,168.6,116a7.65,7.65,0,0,1-3.93,2.65,5,5,0,0,1-5.87-2.56,7.32,7.32,0,0,1-.26-6.47,7.07,7.07,0,0,1,3.37-3.85A5.39,5.39,0,0,1,164.58,105.15Z" transform="translate(-113.43 -99.14)"/><path class="cls-1" d="M170.65,122.86a6.28,6.28,0,0,1,1.89-4.82,7.16,7.16,0,0,1,3.65-2.08,5.5,5.5,0,0,1,6.18,3.43,2.75,2.75,0,0,1-.67,3,34.68,34.68,0,0,1-2.66,2.48c-.71.6-1.48,1.16-2.25,1.69a3.85,3.85,0,0,1-5.95-2.5C170.74,123.6,170.69,123.13,170.65,122.86Z" transform="translate(-113.43 -99.14)"/><text class="cls-2" transform="translate(84.15 86.99)">山<tspan class="cls-3" x="67.82" y="0">野无痕</tspan></text></svg>